<?xml version="1.0" encoding="UTF-8"?>
<svg version="1.1" viewBox="0 0 390.08 100.04" xmlns="http://www.w3.org/2000/svg">
<g transform="translate(-24.624 -32.01)">
<g stroke="#000" aria-label="hypertrie">
<path d="m103.17 70.441 0.768 22.656q0 4.224-0.384 4.896-0.192 1.728-1.152 2.688-0.864 0.96-3.456 0.96-1.248 0-2.016-1.536-0.768-1.632-0.864-3.648-0.672-16.896-1.824-31.68-1.056-14.88-1.056-27.648 0-2.016 1.344-3.168t3.168-1.152q2.688 0 3.168 4.608 0.576 4.608 0.672 11.52 0.192 6.912 0.384 10.08 4.8-2.496 9.6-2.496 11.136 0 14.112 9.792 1.728 5.568 1.728 14.304 0 2.88-0.576 9.12-0.48 6.144-0.576 7.968t-1.632 2.88q-1.44 0.96-3.168 0.96-2.688 0-2.688-2.88l0.672-16.704q0-2.112-0.192-7.008t-2.016-7.776q-1.728-2.88-6.144-2.88-7.872 0-7.872 6.144z"/>
<path d="m163.84 57.193q1.248 0 2.4 0.864 1.248 0.864 1.248 1.92 0 2.784-8.16 30.144t-12.096 38.4q-0.864 2.592-2.688 2.592t-2.88-1.344q-1.056-1.248-1.056-3.744t3.168-12q3.264-9.408 3.936-12-2.4-4.032-16.224-40.32-0.192-0.48-0.192-1.248t1.152-2.016 3.168-1.248 3.264 2.016q1.344 3.456 4.416 12.096 3.072 8.544 4.704 12.384 1.728 3.84 3.264 7.968 1.344-4.512 4.608-17.472 3.264-13.056 3.744-14.88 0.384-2.112 4.224-2.112z"/>
<path d="m188.99 101.45q-3.264 0-6.048-2.208 0 0-1.248-1.056v28.8q-0.576 1.92-2.016 3.168-1.44 1.344-3.072 1.344-2.496 0-2.496-3.36v-66.912q0.576-2.496 1.344-3.552 0.864-1.056 2.592-1.056 1.824 0 2.304 0.864 0.576 0.768 1.344 4.416 0.384-1.92 3.072-3.552t7.2-1.632q9.792 0 13.92 7.104t4.128 16.8q0 9.6-5.664 15.264-5.568 5.568-15.36 5.568zm-7.296-28.8v17.856q0.576 0.288 1.344 0.96 2.784 2.496 6.048 2.496 13.248 0 13.248-13.632 0-11.616-5.952-14.688-2.496-1.344-6.144-1.344-3.552 0.48-6.048 3.168-2.496 2.592-2.496 5.184z"/>
<path d="m228.74 57.097q5.088 0 9.696 2.976t4.608 7.392q0 4.32-3.744 8.448-3.744 4.032-9.984 4.896-2.688 0.384-8.064 0.384 1.056 8.16 4.128 10.752 0.96 1.056 2.592 1.056 5.952 0 9.984-3.744 4.032-3.84 5.76-3.84 0.768 0 2.304 1.44t1.536 2.688q0 2.496-6.048 7.2-2.688 2.208-6.528 3.744-3.744 1.44-7.008 1.44-8.352 0-12.288-10.752-2.496-6.624-2.496-14.592t3.744-13.728 11.808-5.76zm0.48 6.624q-3.648 0-6.24 4.128-0.96 1.44-1.824 6.528 13.44 0 13.44-6.624 0-4.032-5.376-4.032z"/>
<path d="m265.5 87.529 0.096 9.888q0 1.728-1.632 3.168-1.536 1.44-3.072 1.44-2.208 0-2.784-3.456-0.096-0.768-0.768-14.016-0.672-13.344-2.592-20.928-0.864-3.648-0.864-4.32 0-3.168 3.84-3.168 1.632 0 2.592 1.248t1.152 2.592q0.288 1.248 0.48 3.456t0.288 2.784q2.016-4.8 6.048-7.2t8.832-2.4q7.872 0 7.872 4.032 0 2.016-1.44 3.264-1.344 1.152-3.168 1.152-8.16 0-11.52 5.184t-3.36 17.28z"/>
<path d="m292.48 56.713 4.8 0.096q1.632 0 1.824-0.096v-19.68q0.096-1.632 1.632-2.784t2.88-1.152 2.112 0.864q0.864 0.864 0.768 2.688t-0.096 19.968l11.232-0.384q2.88 0 2.88 3.36 0 2.496-1.536 3.744-1.44 1.248-3.168 1.344-1.632 0.096-3.264 0.096l-5.856-0.096q0 3.936 0.768 15.552 0.864 11.616 1.344 15.072 0.48 3.36 0.192 4.416-0.288 0.96-1.056 1.344-1.248 0.576-3.36 0.576t-2.496-2.304q-1.92-12.576-2.592-34.56-0.864 0.096-6.624 0.096t-5.76-3.36q0-4.8 5.376-4.8z"/>
<path d="m335.49 87.529 0.096 9.888q0 1.728-1.632 3.168-1.536 1.44-3.072 1.44-2.208 0-2.784-3.456-0.096-0.768-0.768-14.016-0.672-13.344-2.592-20.928-0.864-3.648-0.864-4.32 0-3.168 3.84-3.168 1.632 0 2.592 1.248t1.152 2.592q0.288 1.248 0.48 3.456t0.288 2.784q2.016-4.8 6.048-7.2t8.832-2.4q7.872 0 7.872 4.032 0 2.016-1.44 3.264-1.344 1.152-3.168 1.152-8.16 0-11.52 5.184t-3.36 17.28z"/>
<path d="m366.4 40.873q1.728 0 3.264 1.632t1.536 3.456q0 1.728-1.728 3.552-1.632 1.824-3.456 1.824t-3.36-1.536q-1.44-1.536-1.44-3.936 0-4.608 4.992-4.992 0.096 0 0.192 0zm4.032 50.304 0.096 6.72q0 1.824-1.44 3.072-1.44 1.152-3.072 1.152-2.4 0-2.496-2.4-1.248-30.624-1.248-33.888t0.288-7.968q0.192-1.728 2.208-1.728 5.088 0 5.76 4.128 0.288 2.112 0.288 3.36l-0.384 6.048z"/>
<path d="m395.39 57.097q5.088 0 9.696 2.976t4.608 7.392q0 4.32-3.744 8.448-3.744 4.032-9.984 4.896-2.688 0.384-8.064 0.384 1.056 8.16 4.128 10.752 0.96 1.056 2.592 1.056 5.952 0 9.984-3.744 4.032-3.84 5.76-3.84 0.768 0 2.304 1.44t1.536 2.688q0 2.496-6.048 7.2-2.688 2.208-6.528 3.744-3.744 1.44-7.008 1.44-8.352 0-12.288-10.752-2.496-6.624-2.496-14.592t3.744-13.728 11.808-5.76zm0.48 6.624q-3.648 0-6.24 4.128-0.96 1.44-1.824 6.528 13.44 0 13.44-6.624 0-4.032-5.376-4.032z"/>
</g>
<path d="m30.299 69.168c8.3356-1.4309 16.723-2.4752 25.098-3.6059 5.6004-0.70773 11.205-1.3854 16.812-2.0357 4.7668-0.60883 3.9027-8.0674-0.86417-7.4586-5.6076 0.78189-11.222 1.5041-16.838 2.2116-8.4211 1.1475-16.853 2.2076-25.267 3.4111-4.7772 0.76094-3.7181 8.2384 1.0591 7.4775z" stroke="#000" stroke-width=".95511"/>
<path d="m38.081 39.256c0.23156 13.844-0.10191 27.724-1.1207 41.51-0.2781 3.7631-0.65917 7.5117-0.98874 11.268-1.0029 10.099-2.4736 20.162-4.8292 29.878-0.23331 0.96232-0.51539 1.903-0.77309 2.8545-1.6812 6.5079 5.3116 9.6372 6.9928 3.1293 0.27488-1.11 0.5726-2.2108 0.82463-3.3301 2.3124-10.271 3.8444-20.834 4.8548-31.456 0.33957-3.861 0.72506-7.7155 1.0187-11.583 1.0801-14.224 1.4284-28.526 1.4542-42.814-0.29213-6.918-7.7256-6.3743-7.4335 0.54374z" fill="#43a592" stroke="#43a592" stroke-width="1.1372"/>
<path d="m55.823 36.76c-1.199 9.2983-1.6595 18.71-2.0866 28.106-0.34636 7.6197-0.5353 13.085-0.82074 20.717-0.39286 12.637-1.017 25.282-2.6903 37.761-0.09325 0.61228-0.18655 1.2245-0.27982 1.8368-0.93061 6.5747 6.3787 8.2488 7.3093 1.6741 0.08891-0.67507 0.17788-1.3501 0.26682-2.0252 0.52987-4.4801 0.99219-8.9786 1.3289-13.49 0.62855-8.4207 0.90506-16.875 1.1988-25.323 0.2734-7.2247 0.48427-13.337 0.83804-20.55 0.44354-9.0439 0.9176-18.124 2.2716-27.036 0.92851-6.5987-6.4075-8.269-7.336-1.6704z" fill="#00353e" stroke="#00353e" stroke-width="1.118"/>
<path d="m30.299 69.168c8.3356-1.4309 16.723-2.4752 25.098-3.6059 5.6004-0.70773 11.205-1.3854 16.812-2.0357 4.7668-0.60883 3.9027-8.0674-0.86417-7.4586-5.6076 0.78189-11.222 1.5041-16.838 2.2116-8.4211 1.1475-16.853 2.2076-25.267 3.4111-4.7772 0.76094-3.7181 8.2384 1.0591 7.4775z" stroke="#000" stroke-width=".95511"/>
<path d="m30.299 69.168c8.3356-1.4309 16.723-2.4752 25.098-3.6059 5.6004-0.70773 11.205-1.3854 16.812-2.0357 4.7668-0.60883 3.9027-8.0674-0.86417-7.4586-5.6076 0.78189-11.222 1.5041-16.838 2.2116-8.4211 1.1475-16.853 2.2076-25.267 3.4111-4.7772 0.76094-3.7181 8.2384 1.0591 7.4775z" stroke="#000" stroke-width=".95511"/>
<path d="m30.299 69.168c8.3356-1.4309 16.723-2.4752 25.098-3.6059 5.6004-0.70773 11.205-1.3854 16.812-2.0357 4.7668-0.60883 3.9027-8.0674-0.86417-7.4586-5.6076 0.78189-11.222 1.5041-16.838 2.2116-8.4211 1.1475-16.853 2.2076-25.267 3.4111-4.7772 0.76094-3.7181 8.2384 1.0591 7.4775z" stroke="#000" stroke-width=".95511"/>
<path d="m30.299 69.168c8.3356-1.4309 16.723-2.4752 25.098-3.6059 5.6004-0.70773 11.205-1.3854 16.812-2.0357 4.7668-0.60883 3.9027-8.0674-0.86417-7.4586-5.6076 0.78189-11.222 1.5041-16.838 2.2116-8.4211 1.1475-16.853 2.2076-25.267 3.4111-4.7772 0.76094-3.7181 8.2384 1.0591 7.4775z" stroke="#000" stroke-width=".95511"/>
<path d="m30.299 69.168c8.3356-1.4309 16.723-2.4752 25.098-3.6059 5.6004-0.70773 11.205-1.3854 16.812-2.0357 4.7668-0.60883 3.9027-8.0674-0.86417-7.4586-5.6076 0.78189-11.222 1.5041-16.838 2.2116-8.4211 1.1475-16.853 2.2076-25.267 3.4111-4.7772 0.76094-3.7181 8.2384 1.0591 7.4775z" fill="#e53c54" stroke="#e53c54" stroke-width=".95511"/>
<path d="m29.888 101.32c0.65296-0.1525 1.3016-0.3256 1.9589-0.45752 4.4187-0.88687 8.8993-1.3795 13.384-1.783 4.9057-0.44133 7.822-0.59345 12.767-0.90801 7.9585-0.41746 4.121-0.21191 11.513-0.61488 4.9696-0.28971 4.4938-7.6198-0.47574-7.3301-7.378 0.4582-3.5319 0.23166-11.539 0.67319-9.0659 0.56169-18.284 0.99847-27.229 2.6441-0.75858 0.13955-1.5088 0.32206-2.2633 0.4831-4.9328 1.3279-3.0488 8.6211 1.884 7.2931z" fill="#f1e8b4" stroke="#f1e8b4" stroke-width=".98223"/>
</g>
</svg>